<?xml version="1.0" standalone="no"?>
<!DOCTYPE svg PUBLIC "-//W3C//DTD SVG 20010904//EN"
 "http://www.w3.org/TR/2001/REC-SVG-20010904/DTD/svg10.dtd">
<svg version="1.0" xmlns="http://www.w3.org/2000/svg"
 width="360.000000pt" height="360.000000pt" viewBox="0 0 360.000000 360.000000"
 preserveAspectRatio="xMidYMid meet">

<g transform="translate(0.000000,360.000000) scale(0.100000,-0.100000)"
fill="#000000" stroke="none">
<path d="M2170 2851 c13 -10 13 -12 0 -22 -12 -8 -12 -10 5 -7 11 2 20 10 20
18 0 8 -9 16 -20 18 -17 3 -17 1 -5 -7z"/>
<path d="M2348 2793 c6 -2 12 -12 12 -21 0 -12 3 -13 11 -5 14 14 3 33 -19 32
-11 0 -12 -3 -4 -6z"/>
<path d="M1200 2751 c-22 -42 -2 -77 28 -48 14 15 13 15 -6 10 -26 -6 -28 4
-6 35 8 12 11 22 5 22 -6 0 -15 -9 -21 -19z"/>
<path d="M1940 2735 c0 -18 5 -25 19 -25 18 0 39 35 28 47 -3 2 -8 -5 -12 -16
-8 -27 -29 -28 -22 -1 3 11 1 20 -4 20 -5 0 -9 -11 -9 -25z"/>
<path d="M2222 2706 c7 -8 15 -12 17 -11 5 6 -10 25 -20 25 -5 0 -4 -6 3 -14z"/>
<path d="M2411 2661 c13 -11 21 -23 16 -27 -4 -4 -14 1 -22 12 -8 10 -15 14
-15 8 0 -5 6 -19 14 -30 13 -17 16 -17 30 -4 14 14 14 18 0 38 -8 12 -22 22
-31 22 -11 0 -9 -5 8 -19z"/>
<path d="M740 2635 c0 -8 4 -15 9 -15 5 0 11 7 15 15 3 9 0 15 -9 15 -8 0 -15
-7 -15 -15z"/>
<path d="M1524 2625 c-6 -15 2 -35 14 -35 4 0 7 11 7 25 0 27 -12 33 -21 10z"/>
<path d="M2068 2630 c12 -6 22 -18 22 -30 0 -25 -15 -26 -30 -2 -10 15 -10 15
-8 -3 4 -24 45 -33 54 -11 9 23 -14 56 -39 55 l-22 0 23 -9z"/>
<path d="M1398 2606 c-3 -14 -1 -26 4 -26 14 0 22 30 11 41 -7 7 -12 2 -15
-15z"/>
<path d="M1650 2620 c0 -5 4 -10 9 -10 13 0 20 -36 10 -51 -6 -11 -9 -11 -13
1 -12 39 -15 43 -13 15 1 -19 8 -31 19 -33 23 -4 33 35 17 64 -13 24 -29 32
-29 14z"/>
<path d="M1211 2603 c-9 -16 -12 -16 -20 -3 -11 16 -27 7 -16 -9 8 -14 42 -14
50 -1 3 6 16 8 29 4 14 -3 27 1 35 10 16 19 1 22 -17 4 -9 -9 -15 -9 -24 0
-16 16 -25 15 -37 -5z"/>
<path d="M2200 2595 c0 -16 30 -29 41 -18 4 4 -3 13 -17 20 -19 9 -24 8 -24
-2z"/>
<path d="M1046 2552 c-11 -31 -43 -47 -63 -30 -14 11 -15 11 -11 -2 12 -39 95
-5 86 35 -4 19 -5 18 -12 -3z"/>
<path d="M2734 2555 c4 -10 -2 -19 -17 -25 -21 -8 -21 -9 5 -9 15 -1 29 3 32
8 8 12 -4 41 -16 41 -6 0 -7 -7 -4 -15z"/>
<path d="M1920 2535 c7 -9 15 -13 17 -11 7 7 -7 26 -19 26 -6 0 -6 -6 2 -15z"/>
<path d="M900 2527 c0 -20 -16 -23 -23 -4 -3 7 -6 6 -6 -5 -1 -25 19 -33 37
-14 13 12 13 19 4 28 -9 9 -12 8 -12 -5z"/>
<path d="M2275 2515 c-33 -27 -68 -31 -125 -14 -53 16 -84 5 -109 -36 -13 -23
-36 -42 -64 -54 -87 -37 -147 -111 -147 -178 1 -29 45 -130 51 -116 2 4 25 19
51 33 l47 24 24 -22 c13 -12 33 -22 45 -22 13 0 33 -6 45 -14 24 -16 91 -29
152 -30 l39 -1 13 -64 c15 -74 16 -76 39 -67 17 7 17 13 -3 149 -3 20 -2 48 1
62 6 22 9 23 32 13 22 -11 28 -9 40 7 13 18 15 18 38 -4 25 -24 46 -21 46 5 0
12 7 14 33 9 17 -4 35 -10 38 -14 12 -12 51 -234 64 -366 4 -43 3 -41 -11 20
-9 39 -20 75 -26 80 -7 7 -8 1 -3 -20 4 -16 15 -75 26 -130 10 -55 22 -111 26
-125 6 -23 7 -21 14 15 5 27 6 9 5 -55 0 -52 3 -123 7 -157 l9 -61 -31 -7
c-17 -4 -31 -11 -31 -16 0 -12 6 -11 40 6 16 8 31 11 34 7 5 -9 -10 -61 -38
-137 -19 -50 -20 -69 -3 -59 7 5 6 0 -3 -11 -21 -26 -125 -71 -197 -85 -90
-18 -222 -9 -259 16 -16 12 -36 23 -45 26 -9 4 -20 29 -28 64 -14 67 -53 195
-58 191 -5 -5 103 -427 111 -435 4 -4 53 -7 109 -6 106 1 232 30 394 90 91 34
93 37 82 109 -5 33 -11 75 -13 92 l-5 33 84 25 c163 50 195 94 250 339 19 82
25 138 25 226 0 147 -16 205 -73 264 -53 55 -113 74 -257 82 -58 3 -117 10
-132 16 -28 10 -42 32 -32 51 3 7 -2 3 -10 -7 -9 -11 -22 -24 -28 -29 -9 -6
-7 -7 5 -3 12 4 17 2 14 -6 -3 -9 -20 -12 -51 -10 -36 2 -46 0 -46 -12 0 -21
-7 -20 -38 5 l-27 21 -13 -21 c-12 -17 -17 -18 -39 -8 -19 9 -26 8 -34 -4 -12
-20 -11 -100 3 -152 6 -25 8 -52 3 -63 -6 -14 -12 -1 -26 55 -12 50 -27 83
-44 100 -14 14 -25 20 -25 14 0 -7 5 -15 10 -18 6 -3 10 -11 10 -16 0 -14
-131 1 -155 17 -11 8 -29 14 -41 14 -12 0 -33 9 -47 20 -14 11 -34 20 -45 20
-10 0 -31 -9 -45 -20 -34 -27 -44 -25 -67 13 -38 61 -19 132 49 186 22 18 57
37 76 42 25 7 43 22 61 50 14 22 32 43 41 46 9 4 45 -1 81 -11 l65 -17 44 30
c51 36 77 38 118 11 21 -14 47 -20 88 -20 79 0 99 -12 92 -53 -5 -26 -1 -37
19 -56 28 -26 32 -50 15 -84 -10 -21 -10 -21 5 -3 23 28 20 60 -8 93 -18 21
-23 36 -19 57 8 41 -17 56 -91 56 -44 0 -69 6 -91 20 -42 28 -93 26 -130 -5z
m504 -335 c144 -10 184 -23 231 -76 51 -58 62 -96 67 -229 5 -109 2 -132 -25
-250 -33 -142 -61 -217 -95 -254 -24 -25 -112 -71 -137 -70 -8 0 12 12 45 28
57 26 125 88 125 113 0 14 -4 9 -43 -44 -20 -27 -43 -42 -94 -61 -38 -14 -77
-28 -88 -30 -14 -3 -11 -5 10 -7 l30 -2 -35 -12 c-38 -14 -48 -6 -49 40 -1 18
7 23 46 29 59 9 94 26 155 77 64 53 85 103 92 213 12 201 14 290 6 255 -8 -32
-9 -31 -6 13 6 81 -40 169 -106 203 -29 15 -208 18 -263 4 l-30 -8 30 -1 30
-2 -34 -15 c-49 -21 -33 -27 23 -8 26 9 49 14 52 11 3 -3 -14 -12 -38 -20 -24
-8 -51 -18 -61 -22 -10 -4 -17 -4 -16 1 1 5 0 16 -4 24 -15 38 -23 109 -15
124 8 15 12 15 40 0 20 -10 76 -19 157 -24z m106 -70 c12 -5 -5 -7 -45 -3 -36
3 -67 7 -69 9 -9 8 95 2 114 -6z m-128 -6 c-3 -3 -12 -4 -19 -1 -8 3 -5 6 6 6
11 1 17 -2 13 -5z m76 -21 c-13 -2 -33 -2 -45 0 -13 2 -3 4 22 4 25 0 35 -2
23 -4z m72 -9 c30 -12 46 -64 55 -182 5 -65 7 -144 5 -177 -3 -50 -3 -53 4
-20 l8 40 1 -35 c1 -19 -5 -46 -13 -60 -8 -14 -14 -39 -15 -57 0 -17 -4 -35
-10 -38 -6 -4 -7 6 -2 27 4 18 7 121 7 228 0 169 -2 199 -18 228 -10 18 -28
37 -40 42 -12 5 -17 9 -10 9 6 1 19 -2 28 -5z m-19 -26 c48 -23 57 -89 46
-310 -8 -148 -11 -172 -33 -214 -27 -53 -82 -89 -154 -100 l-40 -6 -14 94 c-7
51 -19 145 -27 208 -8 63 -22 152 -32 198 -21 91 -21 91 43 116 85 34 161 39
211 14z m103 -121 c23 -194 15 -366 -20 -423 -10 -17 -40 -49 -66 -70 -61 -50
-193 -94 -193 -64 0 6 15 10 33 10 60 0 99 19 152 72 56 57 81 114 92 213 8
72 -14 318 -32 361 -21 51 -18 56 6 11 11 -20 23 -70 28 -110z m-310 129 c-15
-13 -69 -35 -69 -27 0 5 12 14 28 19 28 11 48 15 41 8z m-30 -303 c0 -29 -2
-33 -8 -18 -7 18 -4 55 5 55 2 0 4 -17 3 -37z m257 -268 c-26 -34 -45 -49 -29
-22 17 28 48 65 52 61 2 -2 -8 -19 -23 -39z m-46 -40 c0 -2 -17 -13 -38 -24
-45 -23 -118 -39 -109 -24 4 6 26 14 49 17 24 4 54 13 68 21 28 16 30 17 30
10z m-125 -296 l7 -78 -37 -15 c-20 -9 -41 -13 -46 -10 -5 3 -9 1 -9 -4 0 -9
-137 -56 -236 -81 -23 -6 -85 -12 -138 -14 -109 -2 -108 -3 -127 77 -12 49 -5
66 26 66 6 0 4 -4 -4 -9 -45 -29 220 -35 314 -7 72 22 148 59 196 97 34 26 36
32 33 76 -3 44 -3 45 6 14 4 -19 11 -70 15 -112z m-35 61 c0 -5 -10 -15 -22
-21 l-23 -12 20 21 c23 24 25 25 25 12z"/>
<path d="M2665 2160 l-60 -7 55 -1 c30 -1 62 3 70 8 8 5 11 9 5 8 -5 -1 -37
-4 -70 -8z"/>
<path d="M2952 2107 c21 -17 45 -49 53 -71 17 -40 32 -44 20 -5 -9 27 -83 109
-99 109 -6 0 6 -15 26 -33z"/>
<path d="M3053 1865 c0 -44 2 -61 4 -37 2 23 2 59 0 80 -2 20 -4 1 -4 -43z"/>
<path d="M3042 1680 c-7 -34 -11 -64 -9 -66 6 -6 30 102 25 116 -2 6 -9 -16
-16 -50z"/>
<path d="M2671 1123 c0 -4 4 -17 9 -28 8 -19 9 -19 9 2 1 12 -3 25 -9 28 -5 3
-10 3 -9 -2z"/>
<path d="M2650 1095 c0 -8 5 -15 10 -15 6 0 10 7 10 15 0 8 -4 15 -10 15 -5 0
-10 -7 -10 -15z"/>
<path d="M2590 1038 c-14 -5 -45 -11 -70 -13 -66 -4 -119 -16 -127 -28 -4 -6
4 -7 23 -2 16 4 47 9 69 10 38 2 145 32 145 41 0 6 -12 4 -40 -8z"/>
<path d="M2205 1020 c4 -13 2 -20 -7 -20 -10 0 -9 -3 2 -10 8 -5 26 -9 40 -9
l25 0 -22 11 c-13 6 -23 19 -23 30 0 10 -5 18 -11 18 -6 0 -8 -9 -4 -20z"/>
<path d="M2230 1026 c0 -8 5 -18 10 -21 6 -3 10 1 10 9 0 8 -4 18 -10 21 -5 3
-10 -1 -10 -9z"/>
<path d="M2271 994 c0 -11 3 -14 6 -6 3 7 2 16 -1 19 -3 4 -6 -2 -5 -13z"/>
<path d="M2290 994 c0 -8 5 -12 10 -9 6 4 8 11 5 16 -9 14 -15 11 -15 -7z"/>
<path d="M1130 2510 c-25 -10 -62 -22 -83 -25 -43 -7 -73 -35 -86 -83 -6 -18
-21 -44 -35 -57 -34 -32 -35 -77 -1 -99 28 -19 106 -21 123 -4 8 8 12 9 12 1
0 -6 18 -14 41 -18 31 -5 45 -3 59 10 21 19 54 17 57 -5 9 -71 17 -91 46 -119
17 -18 42 -34 54 -37 14 -4 23 -15 25 -32 4 -34 42 -43 57 -14 8 15 7 29 -4
56 -16 37 -20 76 -8 76 3 0 14 -7 24 -16 26 -23 49 -11 49 26 0 43 28 39 73
-10 42 -47 79 -52 142 -20 40 20 40 20 49 1 6 -14 3 -35 -12 -68 -37 -88 -46
-179 -32 -342 10 -124 10 -164 -4 -266 -8 -66 -24 -145 -35 -175 -19 -51 -20
-52 -14 -15 3 22 10 48 15 57 4 10 10 68 12 130 3 82 2 99 -4 63 -5 -32 -7 17
-5 140 2 105 7 203 11 219 5 19 3 27 -4 23 -5 -4 -13 -35 -17 -69 -8 -79 -14
-100 -26 -93 -5 4 -9 -19 -9 -53 0 -77 -24 -216 -56 -321 -14 -45 -23 -86 -20
-89 3 -3 6 -3 6 -1 0 2 11 34 24 71 23 63 50 180 60 258 2 19 3 -12 2 -70 -2
-93 -8 -122 -50 -259 -45 -147 -55 -206 -21 -125 21 51 85 272 86 299 0 12 3
15 6 7 8 -21 -15 -124 -59 -262 -43 -137 -57 -169 -93 -218 -13 -18 -25 -38
-28 -45 -2 -8 -27 -11 -78 -10 -41 1 -130 2 -199 3 -112 0 -136 3 -229 32
-135 42 -184 86 -152 137 8 12 21 9 80 -18 83 -38 189 -58 346 -64 144 -5 86
10 -83 23 -136 10 -207 27 -293 70 -55 28 -56 30 -67 87 -17 88 -25 292 -14
338 22 87 64 236 97 345 47 150 62 206 69 255 6 37 3 43 -35 83 -34 35 -47 42
-80 42 -55 0 -156 -44 -202 -88 -53 -52 -97 -144 -109 -235 -9 -61 -8 -92 6
-166 23 -127 47 -184 112 -269 60 -79 84 -127 84 -166 0 -14 10 -33 25 -44 16
-13 25 -30 25 -49 0 -15 5 -44 11 -63 6 -19 10 -59 9 -88 -1 -74 26 -99 155
-142 91 -30 113 -34 245 -37 280 -8 291 -6 305 37 4 11 20 35 36 53 73 79 147
269 169 433 6 45 9 189 8 320 -3 231 -2 241 21 297 13 34 21 70 18 85 -3 14 0
34 6 43 9 14 6 28 -11 62 -12 24 -22 49 -22 55 0 7 -11 14 -25 18 -23 6 -24
10 -19 44 7 46 -4 54 -86 63 -37 4 -58 12 -65 24 -5 10 -25 33 -43 52 -32 33
-34 34 -90 26 -64 -8 -75 -8 -152 -1 -41 4 -67 0 -100 -14z m140 -1 c24 -9 45
-9 84 1 46 11 57 10 85 -4 18 -10 41 -33 53 -51 14 -25 29 -36 51 -39 117 -18
107 -12 107 -61 0 -34 4 -45 19 -50 19 -6 74 -101 66 -115 -8 -12 -114 -60
-134 -60 -10 0 -37 21 -60 46 -50 55 -80 57 -93 7 -9 -33 -21 -42 -33 -23 -10
16 -55 12 -55 -5 0 -8 7 -35 15 -60 16 -47 14 -65 -10 -65 -8 0 -11 7 -8 20 4
16 -2 23 -28 34 -53 22 -82 60 -89 114 -4 37 -10 49 -32 61 -25 14 -29 14 -50
-6 -29 -27 -88 -21 -88 8 0 25 -12 24 -28 -1 -15 -24 -61 -26 -102 -5 -37 19
-39 48 -5 77 13 11 30 37 36 57 17 54 44 78 97 85 26 4 63 15 82 26 41 22 74
25 120 9z m-386 -295 c33 -38 39 -76 23 -144 l-13 -55 -14 29 c-21 41 -61 67
-112 73 -41 5 -46 2 -75 -30 -37 -42 -52 -105 -54 -222 -1 -91 15 -226 31
-255 6 -11 8 -20 5 -20 -3 0 8 -21 25 -46 18 -25 33 -44 35 -42 2 2 -10 32
-27 66 -44 92 -61 217 -49 347 14 154 49 205 126 184 101 -28 109 -80 47 -284
-68 -221 -94 -338 -88 -390 6 -47 5 -49 -9 -25 -19 33 -19 20 1 -47 9 -30 13
-57 10 -60 -7 -7 -23 34 -30 78 -4 22 -33 74 -76 134 -76 106 -104 176 -118
297 -24 195 56 360 203 423 76 32 124 29 159 -11z m707 -1057 c-10 -9 -11 -8
-5 6 3 10 9 15 12 12 3 -3 0 -11 -7 -18z"/>
<path d="M1130 2460 c-18 -19 -38 -30 -55 -30 -30 0 -65 -16 -65 -30 0 -7 6
-7 18 -1 9 6 34 13 54 16 23 4 45 15 58 32 13 17 31 26 50 27 40 1 39 16 -1
16 -22 0 -40 -9 -59 -30z"/>
<path d="M1400 2469 c13 -6 33 -17 42 -26 10 -9 21 -13 24 -10 11 11 -40 46
-66 46 l-25 0 25 -10z"/>
<path d="M1267 2383 c-11 -10 -8 -41 4 -49 7 -4 10 -1 7 7 -3 8 -1 22 4 32 8
16 -2 24 -15 10z"/>
<path d="M1582 2346 c10 -7 25 -28 33 -47 l16 -34 -6 34 c-6 40 -21 61 -44 61
-14 -1 -14 -2 1 -14z"/>
<path d="M1457 2320 c3 -11 7 -20 9 -20 2 0 4 9 4 20 0 11 -4 20 -9 20 -5 0
-7 -9 -4 -20z"/>
<path d="M1017 2287 c-21 -16 -30 -18 -39 -9 -17 17 -33 15 -18 -3 16 -20 49
-19 72 2 15 13 23 14 43 5 26 -12 75 1 75 20 0 11 -7 10 -30 -4 -16 -10 -24
-10 -40 0 -26 16 -30 15 -63 -11z"/>
<path d="M1290 2263 c0 -17 26 -34 44 -27 9 3 16 11 16 17 0 7 -4 7 -12 -1 -9
-9 -16 -8 -30 5 -10 9 -18 11 -18 6z"/>
<path d="M1675 2253 c17 -42 12 -48 -37 -47 -26 0 -45 -3 -42 -8 8 -13 91 -9
103 5 8 10 7 21 -2 40 -13 29 -34 38 -22 10z"/>
<path d="M1251 2208 c-1 -9 10 -29 22 -45 13 -15 29 -37 35 -48 6 -11 12 -15
12 -8 0 6 -11 25 -25 41 -14 16 -29 40 -34 53 -7 16 -10 19 -10 7z"/>
<path d="M877 2161 c15 -16 30 -24 32 -19 4 13 -29 48 -46 48 -9 0 -4 -11 14
-29z"/>
<path d="M640 2118 c-48 -74 -55 -81 -46 -48 6 19 5 21 -3 10 -6 -8 -11 -24
-11 -35 0 -12 -9 -48 -21 -80 -18 -50 -20 -75 -16 -155 7 -146 23 -159 19 -16
-4 109 -2 128 18 175 26 59 34 62 19 7 -22 -78 -26 -141 -19 -252 7 -96 12
-121 34 -157 33 -56 78 -109 69 -82 -6 20 -6 20 15 1 12 -11 22 -14 22 -8 0 6
-5 14 -10 17 -18 11 -51 85 -44 97 4 6 3 8 -3 5 -6 -4 -14 11 -18 36 -4 23
-10 49 -13 57 -9 26 -8 361 1 373 6 8 7 6 3 -5 -8 -26 13 -22 23 5 5 12 22 35
39 50 26 25 36 28 77 25 32 -3 58 -13 82 -32 l35 -28 -4 23 c-4 32 -60 59
-119 59 -41 0 -51 -5 -88 -41 -22 -23 -41 -38 -41 -35 0 17 32 66 52 80 19 13
20 16 5 16 -10 0 -34 -25 -57 -62z m-35 -438 c-3 -10 -1 -21 5 -25 6 -3 8 -11
5 -16 -4 -5 -3 -9 2 -9 4 0 9 -12 10 -26 1 -32 -10 -20 -26 25 -14 43 -14 84
-1 76 6 -4 8 -15 5 -25z m72 -176 c-3 -3 -13 8 -21 25 -23 43 -19 52 5 13 12
-18 19 -35 16 -38z"/>
<path d="M2321 2486 c12 -10 60 -16 54 -6 -3 5 -18 10 -32 10 -15 0 -24 -2
-22 -4z"/>
<path d="M1832 2466 c4 -27 34 -44 50 -28 6 6 8 15 4 19 -4 4 -11 1 -16 -7
-10 -16 -11 -15 -29 15 -11 19 -12 19 -9 1z"/>
<path d="M2106 2442 c-12 -22 -28 -32 -77 -46 -34 -9 -60 -19 -57 -21 9 -10
138 37 138 50 0 8 10 21 22 29 18 13 19 16 5 16 -9 0 -23 -13 -31 -28z"/>
<path d="M2325 2450 c3 -4 16 -10 30 -12 13 -3 22 -2 20 2 -3 4 -16 10 -30 12
-13 3 -22 2 -20 -2z"/>
<path d="M2470 2443 c8 -3 25 -15 38 -26 12 -11 22 -16 22 -9 0 18 -30 42 -53
41 -15 0 -17 -2 -7 -6z"/>
<path d="M1774 2421 c25 -27 17 -56 -14 -56 -20 0 -28 8 -37 35 l-13 35 3 -35
c4 -57 71 -75 91 -24 7 19 -18 64 -36 64 -6 0 -3 -9 6 -19z"/>
<path d="M730 2408 c-1 -22 -1 -22 -15 -4 -12 16 -15 17 -15 4 0 -8 7 -21 16
-29 13 -10 17 -10 25 2 12 19 11 36 -1 44 -6 3 -10 -4 -10 -17z"/>
<path d="M565 2386 c-19 -29 -16 -77 5 -84 12 -4 13 -2 3 9 -14 18 -7 59 14
76 9 7 10 13 4 17 -6 4 -17 -4 -26 -18z"/>
<path d="M1924 2348 l-19 -21 28 18 c28 18 33 25 19 25 -5 0 -17 -10 -28 -22z"/>
<path d="M2581 2330 c1 -42 1 -43 10 -18 7 18 7 33 0 45 -8 14 -10 9 -10 -27z"/>
<path d="M2965 2324 c0 -25 4 -43 10 -41 15 5 18 62 3 75 -10 8 -13 1 -13 -34z"/>
<path d="M3190 2367 c0 -2 8 -19 17 -38 13 -24 18 -29 21 -17 4 20 -15 58 -28
58 -6 0 -10 -2 -10 -3z"/>
<path d="M2081 2291 c-10 -6 -3 -9 22 -8 25 1 44 -6 60 -21 23 -22 51 -27 81
-16 9 3 16 10 16 14 0 5 -13 3 -29 -3 -25 -9 -33 -7 -61 16 -32 28 -64 34 -89
18z"/>
<path d="M2400 2260 c-13 -9 -13 -10 0 -10 8 0 22 5 30 10 13 9 13 10 0 10 -8
0 -22 -5 -30 -10z"/>
<path d="M2327 2250 c12 -5 26 -17 32 -27 8 -14 10 -15 11 -2 0 21 -20 39 -44
38 -20 0 -20 -1 1 -9z"/>
<path d="M1996 2224 c-11 -8 -31 -14 -45 -14 -19 0 -22 -3 -12 -9 15 -10 67 4
77 21 10 16 0 17 -20 2z"/>
<path d="M1870 2222 c0 -13 27 -35 39 -30 5 1 -2 11 -15 21 -13 10 -24 14 -24
9z"/>
<path d="M2140 2200 c20 -13 33 -13 25 0 -3 6 -14 10 -23 10 -15 0 -15 -2 -2
-10z"/>
<path d="M2050 2170 c8 -5 25 -10 36 -10 12 0 35 -7 50 -15 16 -8 40 -14 54
-14 21 1 20 2 -7 9 -18 4 -39 12 -45 17 -7 6 -33 13 -58 17 -31 4 -40 3 -30
-4z"/>
<path d="M1090 2099 c41 -11 86 -18 100 -17 14 2 -14 11 -62 21 -112 22 -134
20 -38 -4z"/>
<path d="M990 2098 c0 -27 219 -79 277 -65 10 2 -4 7 -32 10 -122 17 -170 28
-206 45 -22 11 -39 15 -39 10z"/>
<path d="M1881 2088 c-1 -29 19 -116 64 -273 24 -82 56 -212 71 -288 16 -76
30 -134 32 -128 5 15 -43 238 -84 386 -19 72 -46 173 -59 225 -13 52 -24 87
-24 78z"/>
<path d="M1926 2070 c4 -19 13 -50 20 -70 l14 -35 -7 40 c-3 22 -12 54 -19 70
l-14 30 6 -35z"/>
<path d="M941 1992 c-101 -227 -151 -431 -152 -619 -1 -164 15 -218 24 -83 4
51 12 99 18 106 6 7 8 18 4 23 -8 14 13 131 29 156 7 11 16 36 20 55 3 19 17
59 31 88 13 29 22 58 19 65 -5 13 36 144 57 180 7 13 7 23 -2 33 -10 12 -9 13
5 8 11 -4 16 -1 16 10 0 9 -4 16 -10 16 -5 0 -10 4 -10 8 0 5 37 -2 83 -15 85
-25 262 -57 379 -68 86 -9 161 2 193 27 36 28 25 34 -16 9 -26 -16 -51 -21
-106 -21 -126 0 -441 54 -505 86 -15 8 -31 14 -35 14 -4 0 -23 -35 -42 -78z
m5 -109 c-3 -4 -6 -1 -6 6 0 7 -4 9 -10 6 -6 -4 -7 1 -3 11 6 15 7 15 15 -1 6
-9 7 -19 4 -22z m-84 -227 c-20 -41 -26 -47 -17 -16 5 14 8 30 8 36 0 6 6 11
12 11 8 0 7 -9 -3 -31z m-25 -68 c-3 -8 -6 -5 -6 6 -1 11 2 17 5 13 3 -3 4
-12 1 -19z m-10 -40 c-3 -8 -6 -5 -6 6 -1 11 2 17 5 13 3 -3 4 -12 1 -19z
m-10 -65 c-3 -10 -5 -4 -5 12 0 17 2 24 5 18 2 -7 2 -21 0 -30z"/>
<path d="M1465 2056 c35 -18 71 -20 80 -6 4 6 -7 10 -27 10 -18 0 -44 3 -58 5
-22 5 -21 3 5 -9z"/>
<path d="M1982 2030 c0 -14 4 -36 8 -50 8 -24 8 -24 8 5 0 17 -3 39 -8 50 -8
18 -9 18 -8 -5z"/>
<path d="M1520 2000 l-35 -7 45 -2 c25 0 52 4 60 9 12 8 10 9 -10 9 -14 -1
-41 -5 -60 -9z"/>
<path d="M2491 1969 c-121 -57 -330 -89 -456 -70 -33 5 -61 8 -63 6 -1 -1 4
-19 11 -41 8 -21 20 -77 27 -124 7 -47 16 -98 21 -114 5 -16 9 -47 9 -68 0
-27 4 -37 12 -32 8 5 9 -4 5 -32 -5 -29 -4 -35 4 -24 8 11 9 6 5 -20 -4 -25
-3 -31 4 -20 8 13 10 13 10 -2 0 -17 15 -19 38 -5 17 11 5 28 -15 20 -10 -4
-14 -2 -10 4 4 6 1 13 -5 16 -7 2 3 9 22 15 22 6 27 11 15 11 -18 1 -22 12
-33 84 -7 45 -18 87 -25 92 -7 6 -12 15 -12 20 -3 47 -18 154 -25 171 -8 21
-5 21 118 27 70 3 161 13 202 22 75 16 230 81 230 97 0 11 7 13 -89 -33z
m-417 -371 c4 -29 10 -64 13 -77 4 -15 2 -22 -4 -18 -6 4 -14 32 -18 63 -4 32
-9 63 -12 71 -3 7 -1 13 5 13 5 0 13 -24 16 -52z"/>
<path d="M1460 1930 c0 -6 7 -10 15 -10 8 0 15 2 15 4 0 2 -7 6 -15 10 -8 3
-15 1 -15 -4z"/>
<path d="M1455 1900 c-3 -6 -8 -36 -11 -68 -8 -100 -30 -207 -43 -204 -6 1
-11 -3 -11 -8 0 -5 5 -10 10 -10 6 0 10 -7 10 -16 0 -8 -5 -12 -10 -9 -14 9
-9 -58 4 -67 11 -7 39 156 52 297 4 39 11 76 17 83 6 8 6 12 -1 12 -6 0 -14
-5 -17 -10z"/>
<path d="M3203 1828 c4 -10 9 -24 12 -30 3 -7 1 -19 -4 -27 -8 -12 -12 -12
-25 -2 -13 11 -16 11 -16 -2 0 -20 20 -27 43 -15 22 11 22 61 0 79 -15 12 -16
12 -10 -3z"/>
<path d="M1802 1775 c1 -17 -2 -37 -6 -44 -6 -9 -4 -12 5 -9 18 6 23 42 10 65
-9 15 -10 13 -9 -12z"/>
<path d="M1562 1599 c-1 -25 -4 -68 -7 -95 -5 -45 -4 -46 5 -16 6 18 9 61 7
95 -3 52 -3 54 -5 16z"/>
<path d="M2096 1615 c16 -67 24 -81 20 -36 -3 24 -10 49 -16 55 -9 8 -10 4 -4
-19z"/>
<path d="M1530 1590 c-1 -8 -5 -36 -9 -62 -4 -26 -4 -45 0 -42 10 6 23 89 16
106 -4 10 -6 9 -7 -2z"/>
<path d="M877 1505 c-18 -78 -27 -179 -17 -189 7 -7 10 3 10 30 0 22 5 66 11
98 11 61 8 113 -4 61z"/>
<path d="M1842 1503 c3 -34 -2 -53 -13 -53 -6 0 -8 9 -4 23 6 21 5 21 -9 4
-16 -21 -11 -47 10 -47 26 0 47 71 24 85 -5 3 -9 -2 -8 -12z"/>
<path d="M1382 1480 c-1 -16 2 -30 8 -30 9 0 14 14 11 33 0 4 4 7 10 7 5 0 7
5 4 10 -13 20 -31 9 -33 -20z"/>
<path d="M1367 1433 c-11 -11 -8 -21 9 -27 14 -5 15 -4 5 8 -9 11 -9 15 1 19
7 3 8 6 2 6 -6 1 -14 -2 -17 -6z"/>
<path d="M2578 1433 c-10 -2 -18 -9 -18 -14 0 -11 39 -2 55 12 9 9 -6 10 -37
2z"/>
<path d="M1402 1343 c-7 -43 -15 -91 -18 -108 l-5 -30 15 32 c8 18 17 54 21
80 3 26 9 60 11 76 3 15 2 27 -3 27 -5 0 -14 -35 -21 -77z"/>
<path d="M2600 1400 c-24 -15 -7 -19 20 -5 15 8 19 14 10 14 -8 1 -22 -3 -30
-9z"/>
<path d="M1360 1391 c0 -5 5 -13 10 -16 6 -3 10 -2 10 4 0 5 -4 13 -10 16 -5
3 -10 2 -10 -4z"/>
<path d="M2093 1378 c3 -13 11 -58 18 -101 6 -43 16 -80 20 -83 11 -6 11 -8
-1 56 -9 46 -8 55 7 66 10 7 14 14 8 14 -5 0 -4 4 3 9 10 6 10 10 -3 21 -13
11 -15 9 -15 -11 0 -19 -2 -21 -10 -9 -13 20 -13 53 0 45 6 -3 10 -1 10 4 0 6
-9 11 -21 11 -17 0 -20 -5 -16 -22z"/>
<path d="M2071 1374 c0 -11 3 -14 6 -6 3 7 2 16 -1 19 -3 4 -6 -2 -5 -13z"/>
<path d="M1353 1343 c3 -13 1 -23 -5 -23 -5 0 -6 -5 -2 -11 5 -8 10 -6 16 5 6
10 5 22 -2 34 -10 15 -11 14 -7 -5z"/>
<path d="M500 1268 c-34 -57 -21 -109 16 -66 17 19 17 21 2 15 -24 -8 -23 10
2 51 11 17 15 32 10 32 -6 0 -19 -15 -30 -32z"/>
<path d="M2157 1223 c-10 -9 -9 -23 1 -23 5 0 9 7 9 15 0 17 -1 18 -10 8z"/>
<path d="M3053 1193 c-13 -35 -29 -47 -18 -13 3 11 2 20 -3 20 -12 0 -25 -47
-17 -60 4 -6 10 -10 15 -10 14 0 42 59 38 78 -3 11 -8 6 -15 -15z"/>
<path d="M2010 1178 c0 -31 -18 -47 -31 -27 -4 7 -12 10 -16 5 -11 -11 26 -36
43 -29 19 7 29 52 15 66 -8 8 -11 4 -11 -15z"/>
<path d="M2158 1183 c7 -3 16 -2 19 1 4 3 -2 6 -13 5 -11 0 -14 -3 -6 -6z"/>
<path d="M830 1161 c0 -37 144 -82 275 -86 62 -2 87 0 65 5 -19 4 -39 8 -45
10 -5 2 -18 0 -27 -4 -32 -14 -248 51 -248 75 0 5 -4 9 -10 9 -5 0 -10 -4 -10
-9z"/>
<path d="M2230 1160 c8 -5 28 -10 44 -10 39 0 30 6 -19 13 -27 4 -35 3 -25 -3z"/>
<path d="M1004 1145 c26 -16 188 -35 176 -22 -3 3 -37 11 -75 16 -39 5 -83 13
-100 16 l-30 6 29 -16z"/>
<path d="M2150 1142 c0 -13 86 -34 126 -29 l39 4 -45 2 c-25 1 -56 8 -70 16
-28 16 -50 19 -50 7z"/>
<path d="M1310 1111 c0 -6 5 -13 10 -16 6 -3 10 1 10 9 0 9 -4 16 -10 16 -5 0
-10 -4 -10 -9z"/>
<path d="M1371 1104 c0 -11 3 -14 6 -6 3 7 2 16 -1 19 -3 4 -6 -2 -5 -13z"/>
<path d="M1390 1096 c0 -9 5 -16 10 -16 6 0 10 4 10 9 0 6 -4 13 -10 16 -5 3
-10 -1 -10 -9z"/>
<path d="M558 1084 c-10 -9 -10 -46 -2 -68 8 -22 31 -20 44 3 17 33 11 48 -9
21 l-20 -25 -3 39 c-2 21 -6 34 -10 30z"/>
<path d="M810 1061 c0 -11 4 -22 9 -25 4 -3 6 6 3 19 -5 30 -12 33 -12 6z"/>
<path d="M842 1038 c5 -15 28 -23 28 -10 0 5 -7 13 -16 16 -10 4 -14 1 -12 -6z"/>
<path d="M947 1030 c37 -15 170 -40 205 -39 18 1 -3 7 -47 14 -44 7 -98 18
-120 24 -47 13 -69 14 -38 1z"/>
<path d="M900 1026 c0 -6 89 -34 130 -40 23 -4 16 1 -21 13 -72 23 -109 33
-109 27z"/>
<path d="M1380 1010 l-45 -7 57 -1 c31 -1 60 3 63 8 7 11 -6 11 -75 0z"/>
<path d="M950 981 c8 -5 33 -12 55 -15 28 -4 33 -3 15 2 -46 16 -86 23 -70 13z"/>
<path d="M1240 980 c0 -5 5 -10 10 -10 6 0 10 5 10 10 0 6 -4 10 -10 10 -5 0
-10 -4 -10 -10z"/>
<path d="M1288 983 c12 -2 30 -2 40 0 9 3 -1 5 -23 4 -22 0 -30 -2 -17 -4z"/>
<path d="M1313 943 c9 -2 25 -2 35 0 9 3 1 5 -18 5 -19 0 -27 -2 -17 -5z"/>
<path d="M1810 858 c0 -35 -19 -46 -37 -22 -14 18 -14 18 -11 -6 5 -37 49 -35
62 3 7 19 6 31 -2 39 -9 9 -12 6 -12 -14z"/>
<path d="M1107 793 c-7 -33 -27 -46 -27 -18 0 8 -4 15 -10 15 -14 0 -13 -23 2
-38 28 -28 56 6 46 55 -3 12 -6 7 -11 -14z"/>
</g>
</svg>
